<svg width="844" height="1077" viewBox="0 0 844 1077" fill="none" xmlns="http://www.w3.org/2000/svg">
<mask id="mask0_1_3" style="mask-type:luminance" maskUnits="userSpaceOnUse" x="0" y="0" width="844" height="1077">
<path d="M844 0.320007H0.0700073V1077H844V0.320007Z" fill="white"/>
</mask>
<g mask="url(#mask0_1_3)">
<path d="M843.93 -0.0715332H-0.000152588V1076.61H843.93V-0.0715332Z" fill="#3A635B"/>
<path d="M898.655 -18.4118C899.477 -13.8848 901.02 -9.35788 901.03 -4.83092C901.151 205.929 901.131 416.702 901.131 627.462V1077.16C600.754 1077.16 300.377 1077.16 -0.000152588 1077.16C-0.000152588 716.496 -0.000152588 355.832 0.100077 -4.83092C0.100077 -9.35788 1.65363 -13.8848 2.47551 -18.4118C2.81629 -13.1874 3.14704 -7.96309 3.59808 -0.891256C12.2078 -7.26569 19.7149 -12.8449 27.2321 -18.4118C37.1348 -18.4118 47.0374 -18.4118 56.9401 -18.4118C49.062 -11.5602 41.8656 -2.79992 33.1757 1.76374C8.48926 14.7328 -1.22295 35.3366 2.41537 68.5179C5.03135 92.3517 2.92654 116.944 2.92654 144.412C10.6843 136.691 15.8762 131.1 21.4188 126.084C45.8547 103.987 69.2382 79.7374 95.1575 60.6019C133.445 32.339 173.567 7.74665 212.907 -18.4118C224.463 -18.4118 236.01 -18.4118 247.566 -18.4118C244.299 -15.4876 241.272 -11.9884 237.723 -9.71269C215.132 4.82249 192.54 19.3821 169.728 33.3912C112.026 68.8115 57.5715 109.982 11.0952 165.37C7.74757 169.359 3.52792 174.84 3.36755 179.795C2.56572 204.131 3.00672 228.539 3.00672 253.328C24.2854 232.907 43.6697 211.888 65.0286 194.477C89.6248 174.424 114.832 154.432 141.794 139.995C190.375 113.971 240.049 90.7367 290.023 68.9217C331.307 50.8873 368.302 26.9923 393.63 -18.4118H413.435C397.359 15.3079 376.561 44.6107 347.214 60.1492C294.403 88.1061 240.41 112.723 186.887 138.673C129.396 166.545 76.7353 203.739 29.9584 253.756C9.43142 275.693 -0.832055 299.368 2.47551 333.259C4.80083 357.178 2.92654 381.697 2.92654 410.315C18.883 390.617 31.3115 372.986 45.6442 358.071C77.2064 325.208 108.488 291.599 142.145 262.137C192.119 218.409 250.212 199.151 310.53 189.681C366.919 180.835 412.223 150.456 442.371 90.4797C460.433 54.5455 477.572 17.9139 495.122 -18.4118C500.895 -18.4118 506.679 -18.4118 512.452 -18.4118C511.439 -14.2519 511.069 -9.61481 509.305 -5.99325C491.594 30.2591 473.934 66.5603 455.612 102.36C448.906 115.464 441.079 127.907 432.719 139.542C399.514 185.79 355.363 204.877 307.032 211.484C251.505 219.082 200.649 241.264 153.461 277.577C97.7734 320.424 51.9687 376.669 7.53708 434.883C5.21177 437.929 3.29739 442.676 3.16709 446.726C2.66594 462.546 2.96663 478.415 2.96663 494.614C5.08147 494.051 6.04367 494.149 6.54482 493.611C11.2055 488.656 15.7459 483.529 20.3865 478.549C62.5629 433.366 106.854 391.938 156.217 358.622C222.629 313.817 291.927 281.725 368.623 276.06C428.78 271.619 475.828 235.868 512.161 178.951C550.429 119.024 575.546 49.9207 601.576 -18.4118C607.359 -18.4118 613.132 -18.4118 618.905 -18.4118C618.735 -15.977 619.156 -13.1752 618.314 -11.1442C587.944 62.2658 562.747 139.359 517.844 202.54C487.244 245.595 451.182 279.131 404.184 290.192C382.013 295.404 359.271 297.007 336.81 300.383C268.243 310.685 207.424 346.852 148.7 387.778C99.9785 421.742 56.5592 465.115 15.5855 512.147C3.85867 525.605 0.541085 539.186 4.06915 557.453C5.28193 556.756 6.50472 556.437 7.30656 555.544C55.2261 501.857 110.011 462.546 170.951 434.467C235.228 404.846 301.499 385.857 368.783 370.319C418.537 358.83 466.076 339.401 506.478 300.016C556.342 251.394 595.221 190.574 629.9 126.389C654.707 80.4348 673.931 30.0021 695.651 -18.4118C701.424 -18.4118 707.207 -18.4118 712.98 -18.4118C706.355 -0.0470409 700.522 18.8193 692.955 36.5968C659.558 114.999 619.216 187.699 570.996 253.756C546.77 286.925 520.099 316.815 488.918 340.11C462.307 359.98 433.03 371.53 402.891 380.89C331.498 403.035 258.571 417.118 188.892 448.451C121.257 478.868 60.3178 520.564 9.33119 582.951C6.60495 586.291 3.53794 590.94 3.28737 595.222C2.50558 608.559 2.9967 622.005 2.9967 637.923C7.36669 633.628 10.0328 630.814 12.8492 628.257C34.3284 608.803 55.0157 587.832 77.5271 570.349C117.729 539.1 162.852 520.442 207.294 500.511C283.308 466.412 362.138 444.989 441.209 424.703C496.405 410.547 549.577 390.445 595.011 346.962C638.44 305.412 674.222 255.322 702.055 197.989C724.437 151.887 742.438 102.507 760.99 53.787C769.78 30.6628 775.293 5.70341 782.299 -18.4118C788.072 -18.4118 793.855 -18.4118 799.629 -18.4118C788.784 17.9139 779.482 55.0594 766.773 90.3818C738.539 168.869 704.421 242.965 655.76 306.342C616.75 357.154 573.06 399.022 518.265 420.042C484.608 432.95 449.919 442.077 415.43 451.498C322.397 476.91 230.707 507.669 142.816 553.207C93.5338 578.742 48.2903 612.523 10.8046 660.043C7.55713 664.167 3.71835 669.587 3.3475 674.738C2.32517 688.943 2.9967 703.319 2.9967 720.497C7.27649 715.603 9.46149 712.789 11.9071 710.366C33.9675 688.576 54.9956 664.925 78.3791 645.496C139.8 594.488 209.058 564.708 280.461 542.955C346.372 522.877 413.245 507.522 479.226 487.738C531.175 472.163 582.151 451.73 634.1 436.155C653.354 430.38 674.472 428.753 694.177 431.42C738.799 437.464 758.384 465.739 752.761 516.906C750.556 536.984 745.334 557.282 738.378 575.744C724.467 612.67 708.66 648.543 693.195 684.562C650.708 783.556 617.372 886.403 605.274 997.95C602.608 1022.53 602.608 1047.55 601.385 1072.2H626.122C626.773 1064.72 627.355 1058.26 627.886 1051.8C630.562 1019.31 632.597 986.742 636.004 954.381C645.947 859.927 676.637 774.698 716.358 693.959C732.024 662.111 750.647 632.454 766.854 600.973C804.299 528.224 840.081 454.177 878.659 382.346C893.032 355.6 899.878 329.282 897.833 297.9C896.46 276.855 897.573 255.579 897.573 234.865C876.264 269.306 856.098 303.516 834.518 336.33C815.234 365.645 790.337 384.597 758.595 386.273C742.668 387.117 738.348 382.248 734.53 363.553C729.268 337.761 734.921 313.793 742.959 290.314C769.289 213.405 796.01 136.691 821.889 59.5619C830.429 34.1131 836.834 7.59983 844.211 -18.424C845.864 -18.424 847.508 -18.424 849.162 -18.424C852.75 -11.7315 858.603 -7.29016 855.216 3.73357C845.544 35.1653 838.608 67.9062 828.234 98.9708C806.685 163.547 783.201 227.169 761.441 291.648C755.909 308.055 752.06 326.003 750.626 343.622C748.722 367.04 754.906 373.01 772.907 363.455C788.393 355.233 805.281 344.723 815.525 329.295C841.835 289.69 864.808 246.782 889.103 205.183C896.35 192.777 897.813 178.914 897.783 163.853C897.663 103.094 898.304 42.335 898.675 -18.424L898.655 -18.4118ZM223.27 1073.34C267.812 1073.34 312.394 1071.91 356.876 1073.95C378.566 1074.94 394.492 1065.27 407.913 1047.15C416.693 1035.29 424.932 1022.38 431.396 1008.55C440.728 988.541 448.546 967.448 456.444 946.502C481.732 879.417 507.039 812.259 522.234 740.464C534.001 684.856 517.463 661.034 470.546 669.55C436.909 675.655 403.783 686.863 370.888 697.825C294.794 723.201 221.136 756.639 151.927 803.279C108.047 832.851 66.7425 866.423 38.3676 919.083C20.8275 951.628 16.1368 985.201 31.7124 1019.91C38.9188 1035.96 48.9117 1050.47 59.095 1064.06C63.1142 1069.43 71.0724 1072.85 77.2866 1072.95C125.948 1073.66 174.609 1073.34 223.28 1073.34H223.27ZM583.274 1072.72C583.755 1069 584.456 1066.12 584.446 1063.25C584.386 953.292 612.009 851.521 647.651 752.552C663.537 708.457 683.553 666.589 700.251 622.898C713.061 589.374 726.581 555.532 734.369 520.075C743.661 477.791 723.996 452.293 687.612 450.36C657.433 448.757 628.287 455.242 600.102 466.926C505.837 506.005 408.334 529.092 311.572 555.997C243.888 574.814 177.937 599.908 116.927 641.471C77.0661 668.62 40.7931 701.422 10.3836 743.278C7.69745 746.973 3.66824 751.219 3.53794 755.354C2.84636 777.071 3.21721 798.837 3.21721 822.353C5.92339 819.796 7.05598 819.074 7.8077 817.973C47.2379 760.15 96.9115 719.628 153.932 692.833C191.548 675.154 230.086 660.325 268.424 645.007C352.566 611.397 436.638 577.469 521.222 545.573C542.08 537.706 564.912 533.154 586.641 534.072C631.474 535.956 658.085 578.889 649.114 632.123C645.426 653.999 638.791 675.472 631.444 696.039C594.58 799.204 556.934 901.954 519.829 1005C511.961 1026.85 505.215 1049.31 497.538 1072.74H583.284L583.274 1072.72ZM410.609 1073.34C433.401 1073.34 452.324 1073.83 471.207 1072.91C474.796 1072.74 479.887 1067.93 481.411 1063.73C493.709 1029.75 504.965 995.221 517.203 961.22C551.12 866.95 585.519 772.948 619.296 678.592C625.19 662.136 630.402 644.909 633.388 627.401C639.132 593.705 626.693 569.602 600.002 558.53C579.936 550.21 559.95 553.207 540.456 560.683C485.079 581.923 429.833 603.665 374.627 625.529C307.293 652.201 239.718 678.029 172.865 706.426C108.949 733.576 54.3942 778.319 12.0975 843.838C6.0136 853.271 2.59578 862.692 2.69601 875.245C3.20718 935.576 2.92654 995.906 2.91652 1056.24C2.91652 1061.56 2.91652 1066.89 2.91652 1072.55H39.8109C35.481 1065.88 31.8226 1060.61 28.495 1055.05C5.01131 1015.83 -4.40022 973.712 14.3126 927.99C28.485 893.377 49.2324 864.466 74.0592 840.62C114.742 801.529 160.467 773.009 207.364 746.471C280.301 705.203 357.568 680.464 434.594 654.917C453.687 648.579 474.585 647.662 494.531 648.518C526.203 649.876 544.485 675.362 542.851 713.621C542.18 729.465 540.115 745.982 535.454 760.676C513.484 829.939 491.083 899.03 467.419 967.46C454.329 1005.32 439.786 1042.77 410.589 1073.35L410.609 1073.34ZM897.542 484.435C894.816 487.31 893.734 488.081 893.062 489.218C845.634 570.104 799.689 652.03 762.263 740.782C727.754 822.622 701.825 907.9 686.991 998.06C682.992 1022.36 681.047 1047.15 678.101 1072.25H721.039C726.541 1027.34 730.44 983.317 737.547 940.078C750.927 858.667 767.285 777.915 805.963 707.748C832.814 659.028 862.142 612.339 890.126 564.537C893.353 559.031 896.901 552.351 897.202 546.001C898.124 526.523 897.532 506.935 897.532 484.435H897.542ZM660.741 1072.67C661.402 1067.77 662.204 1063.42 662.545 1059C670.684 955.103 697.776 857.92 733.928 764.212C774.451 659.15 827.252 563.069 883.921 470.34C900.028 443.986 897.172 417.778 897.011 385.857C893.002 393.223 890.697 397.162 888.642 401.273C868.516 441.612 849.021 482.44 828.194 522.241C798.055 579.831 766.583 636.381 736.364 693.91C687.372 787.202 656.652 888.691 647.09 999.161C644.995 1023.41 644.524 1047.88 643.281 1072.67H660.741ZM792.653 1072.78C792.953 1066.39 793.334 1060.5 793.484 1054.6C794.477 1015.43 794.407 976.184 796.582 937.117C802.585 829.339 827.683 729.795 886.698 646.573C898.765 629.554 898.204 612.07 897.041 593.926C791.751 727.422 750.075 891.75 740.944 1072.78H792.663H792.653ZM841.755 1073.35C841.755 1064.91 841.685 1058.46 841.765 1052.03C842.436 1001.25 842.005 950.404 844.11 899.727C846.646 838.613 858.874 780.154 888.031 729.33C899.467 709.399 897.392 689.31 897.121 664.717C813.039 785.978 810.503 928.577 810.333 1073.37H841.755V1073.35ZM896.801 756.321C848.54 855.51 861.751 964.903 859.115 1072.46H896.801V756.321Z" fill="#345952"/>
<path d="M212.295 1018.69C178.067 1018.79 150.454 1012.57 127.742 990.254C107.265 970.127 104.94 944.03 117.218 915.816C129.476 887.651 147.076 865.371 167.423 846.077C204.878 810.571 245.732 782.124 291.777 767.626C314.238 760.554 338.053 757.079 361.266 757.006C394.452 756.908 413.636 782.455 414.347 822.879C415.45 885.657 391.054 932.603 350.832 968.341C308.014 1006.39 257.529 1013.55 212.285 1018.68L212.295 1018.69ZM219.682 997.081C261.438 994.145 303.594 982.79 340.709 951.383C372.822 924.209 393.309 887.835 396.978 839.714C400.035 799.608 388.007 772.972 351.203 775.579C342.182 776.215 332.711 776.043 324.322 779.445C293.571 791.888 262.159 803.022 232.902 819.637C194.916 841.195 161.639 871.978 136.712 914.103C119.393 943.382 125.377 969.552 151.937 985.323C172.745 997.68 194.835 998.133 219.682 997.081Z" fill="#345952"/>
</g>
</svg>
