<svg width="219" height="26" viewBox="0 0 219 26" fill="none" xmlns="http://www.w3.org/2000/svg">
<path d="M21.18 13.6C20.98 13.65 20.95 13.8 20.87 13.91C19.03 16.45 17.19 18.98 15.38 21.53C15.16 21.83 14.93 21.9 14.59 21.94C13.92 22.01 13.53 21.76 13.15 21.21C11.44 18.76 9.68001 16.34 7.93001 13.91C7.85001 13.8 7.77001 13.7 7.62001 13.51V14.01C7.62001 17.61 7.62001 21.21 7.62001 24.81C7.62001 25.12 7.57001 25.24 7.22001 25.23C4.94001 25.21 2.66 25.21 0.380005 25.23C0.0900049 25.23 0.0100098 25.17 0.0100098 24.86C0.0100098 17.24 0.0100098 9.62 0.0100098 2C0.0100098 1.67 0.110006 1.61 0.420006 1.61C2.53001 1.62 4.64001 1.62 6.75001 1.61C7.01001 1.61 7.15001 1.71 7.30001 1.9C9.56001 4.99 11.82 8.07 14.08 11.16C14.17 11.28 14.27 11.41 14.36 11.54C14.55 11.43 14.63 11.25 14.74 11.09C16.99 8.05 19.23 5 21.46 1.95C21.65 1.69 21.85 1.61 22.16 1.61C24.24 1.62 26.32 1.62 28.4 1.61C28.69 1.61 28.78 1.67 28.78 1.98C28.78 9.61 28.78 17.25 28.78 24.88C28.78 25.16 28.7 25.23 28.43 25.23C26.14 25.22 23.84 25.21 21.55 25.23C21.2 25.23 21.17 25.1 21.17 24.82C21.17 21.19 21.17 17.57 21.17 13.94V13.6H21.18Z" fill="white"/>
<path d="M196.18 13.45C196.18 9.67 196.18 5.89 196.17 2.11C196.17 1.69 196.29 1.61 196.69 1.61C198.97 1.63 201.25 1.63 203.53 1.61C203.89 1.61 204.01 1.68 204.01 2.07C203.99 4.47 204.01 6.87 203.99 9.27C203.99 9.57 204.04 9.68 204.38 9.67C206.42 9.65 208.46 9.65 210.5 9.67C210.83 9.67 210.92 9.59 210.92 9.26C210.9 6.85 210.92 4.43 210.9 2.02C210.9 1.71 210.96 1.61 211.29 1.62C213.64 1.64 215.99 1.63 218.34 1.62C218.63 1.62 218.73 1.68 218.73 1.99C218.73 9.62 218.73 17.26 218.73 24.89C218.73 25.17 218.65 25.24 218.38 25.24C216 25.23 213.62 25.23 211.25 25.24C210.95 25.24 210.91 25.13 210.91 24.88C210.91 22.17 210.91 19.46 210.92 16.75C210.92 16.35 210.81 16.26 210.43 16.27C208.42 16.29 206.41 16.29 204.4 16.27C204.08 16.27 204 16.35 204 16.67C204.01 19.39 204 22.12 204.01 24.84C204.01 25.14 203.96 25.25 203.62 25.24C201.27 25.22 198.92 25.22 196.57 25.24C196.25 25.24 196.18 25.16 196.18 24.85C196.19 21.05 196.18 17.26 196.18 13.46V13.45Z" fill="white"/>
<path d="M152.43 13.45C152.43 9.65001 152.43 5.86001 152.42 2.06001C152.42 1.67001 152.53 1.60001 152.89 1.60001C158.64 1.61001 164.38 1.61001 170.13 1.60001C170.49 1.60001 170.57 1.69001 170.57 2.04001C170.55 3.87001 170.55 5.71001 170.57 7.54001C170.57 7.86001 170.49 7.94001 170.17 7.94001C166.91 7.93001 163.66 7.94001 160.4 7.92001C160.01 7.92001 159.92 8.03001 159.95 8.39001C159.98 8.88001 159.98 9.38001 159.95 9.87001C159.93 10.2 160.05 10.26 160.36 10.26C163.12 10.25 165.88 10.26 168.64 10.25C168.98 10.25 169.1 10.31 169.09 10.68C169.07 12.43 169.07 14.18 169.09 15.93C169.09 16.27 169.01 16.38 168.65 16.38C165.9 16.36 163.16 16.38 160.41 16.36C160.03 16.36 159.92 16.45 159.95 16.83C159.98 17.39 159.98 17.96 159.95 18.52C159.93 18.85 160.04 18.92 160.35 18.92C163.58 18.91 166.8 18.92 170.03 18.9C170.49 18.9 170.57 19.03 170.56 19.45C170.54 21.26 170.54 23.06 170.56 24.87C170.56 25.14 170.5 25.22 170.22 25.22C164.4 25.22 158.58 25.21 152.77 25.22C152.44 25.22 152.42 25.09 152.42 24.83C152.42 21.03 152.42 17.24 152.42 13.44L152.43 13.45Z" fill="white"/>
<path d="M185.46 0.960007C187.9 0.970007 190.13 1.43001 192.17 2.63001C192.82 3.01001 193.4 3.47001 193.96 3.97001C194.1 4.09001 194.1 4.18001 193.99 4.31001C192.59 5.99001 191.18 7.67001 189.79 9.36001C189.61 9.58001 189.51 9.42001 189.39 9.32001C187.91 8.20001 186.22 7.79001 184.43 8.22001C182.36 8.72001 181.16 10.16 180.73 12.2C180.29 14.35 180.85 16.23 182.55 17.69C184.53 19.39 187.61 18.9 189.31 17.56C189.6 17.33 189.71 17.37 189.93 17.63C191.24 19.22 192.56 20.81 193.89 22.38C194.09 22.62 194.11 22.74 193.86 22.97C192 24.65 189.78 25.5 187.32 25.78C184.18 26.13 181.19 25.65 178.47 24C175.3 22.07 173.45 19.24 172.87 15.59C172.49 13.23 172.69 10.92 173.55 8.69001C174.68 5.77001 176.69 3.65001 179.5 2.28001C181.41 1.35001 183.45 0.960007 185.48 0.960007H185.46Z" fill="white"/>
<path d="M140.34 1.61C143.43 1.61 146.51 1.61 149.6 1.61C149.99 1.61 150.07 1.72 150.06 2.08C150.04 4 150.04 5.92 150.06 7.84C150.06 8.16 149.98 8.24 149.66 8.24C148 8.22 146.35 8.24 144.69 8.22C144.32 8.22 144.22 8.3 144.22 8.68C144.23 14.04 144.22 19.4 144.24 24.77C144.24 25.13 144.17 25.24 143.79 25.23C141.47 25.21 139.15 25.21 136.82 25.23C136.48 25.23 136.41 25.13 136.41 24.81C136.41 19.45 136.41 14.09 136.43 8.72C136.43 8.31 136.32 8.21 135.92 8.22C134.28 8.25 132.64 8.22 130.99 8.24C130.7 8.24 130.61 8.17 130.61 7.87C130.62 5.91 130.62 3.95 130.61 1.99C130.61 1.68 130.7 1.62 130.99 1.62C134.1 1.63 137.22 1.62 140.33 1.62L140.34 1.61Z" fill="white"/>
<path d="M130.27 24.71C130.25 24.63 130.21 24.55 130.18 24.47C127.29 16.97 124.4 9.48 121.52 1.98C121.41 1.7 121.28 1.6 120.97 1.6C118.48 1.61 115.99 1.61 113.49 1.6C113.16 1.6 113.04 1.7 112.92 2C110.69 7.81 108.46 13.61 106.22 19.41C105.62 20.96 105.02 22.52 104.41 24.1C104.34 24.02 104.29 23.97 104.25 23.91C101.43 20.32 98.62 16.73 95.8 13.15C95.65 12.96 95.64 12.85 95.8 12.66C97.21 10.95 98.6 9.22 99.99 7.5C101.4 5.76 102.81 4.01 104.23 2.27C104.38 2.08 104.44 1.89 104.36 1.69C104.29 1.52 104.08 1.61 103.94 1.61C101.12 1.61 98.3 1.61 95.49 1.6C95.2 1.6 95.03 1.69 94.86 1.92C92.81 4.65 90.75 7.38 88.7 10.1C88.67 10.1 88.64 10.1 88.61 10.09C88.61 9.94 88.61 9.79 88.61 9.64C88.61 7.1 88.61 4.56 88.61 2.02C88.61 1.68 88.51 1.6 88.18 1.6C85.86 1.61 83.54 1.61 81.21 1.6C80.89 1.6 80.78 1.66 80.78 2.01C80.79 9.62 80.79 17.22 80.78 24.83C80.78 25.15 80.86 25.22 81.17 25.22C83.51 25.21 85.84 25.2 88.18 25.22C88.56 25.22 88.61 25.1 88.6 24.77C88.59 21.96 88.6 19.15 88.6 16.35C88.6 16.2 88.6 16.06 88.6 15.78C88.77 16 88.85 16.1 88.93 16.21C91.1 19.12 93.26 22.03 95.43 24.94C95.55 25.1 95.65 25.22 95.9 25.22C101.21 25.22 106.52 25.22 111.83 25.22C112.05 25.22 112.15 25.16 112.21 24.94C112.48 24.05 112.78 23.17 113.06 22.29C113.13 22.07 113.22 21.98 113.47 21.99C115.98 22 118.48 22 120.99 21.99C121.24 21.99 121.32 22.08 121.39 22.31C121.65 23.16 121.95 23.99 122.2 24.84C122.29 25.16 122.44 25.23 122.76 25.23C125.14 25.22 127.52 25.23 129.9 25.23C130.35 25.23 130.41 25.15 130.28 24.72L130.27 24.71ZM115.35 15.92C115.06 15.92 115.16 15.77 115.21 15.62C115.69 14.12 116.18 12.62 116.66 11.12C116.84 10.56 117.02 10 117.23 9.36C117.95 11.58 118.63 13.71 119.34 15.91C117.98 15.91 116.66 15.91 115.35 15.91V15.92Z" fill="white"/>
<path d="M78.64 24.74C78.6 24.62 78.53 24.52 78.46 24.41C77.1 22.06 75.74 19.7 74.37 17.36C74.23 17.13 74.25 17.03 74.49 16.89C75.58 16.21 76.44 15.29 76.99 14.14C78.11 11.78 78.21 9.33001 77.46 6.85001C76.87 4.91001 75.67 3.46001 73.85 2.52001C72.51 1.83001 71.07 1.62001 69.58 1.62001C65.72 1.62001 61.85 1.62001 57.99 1.62001C57.62 1.62001 57.52 1.70001 57.52 2.08001C57.54 5.87001 57.52 9.67001 57.52 13.46C57.52 17.25 57.52 21.05 57.52 24.84C57.52 25.16 57.6 25.23 57.91 25.23C60.19 25.22 62.47 25.21 64.75 25.23C65.08 25.23 65.14 25.14 65.14 24.83C65.13 22.88 65.14 20.94 65.14 18.99C65.14 18.12 65.14 18.14 66.02 18.1C66.41 18.08 66.59 18.23 66.75 18.56C67.83 20.68 68.94 22.79 70.02 24.9C70.14 25.13 70.25 25.22 70.52 25.22C73.11 25.21 75.7 25.22 78.29 25.22C78.67 25.22 78.76 25.11 78.64 24.75V24.74ZM70.23 10.63C69.99 11.43 69.4 11.81 68.61 11.92C67.53 12.06 66.44 11.95 65.35 11.99C65.11 11.99 65.12 11.85 65.12 11.69C65.12 11.1 65.12 10.51 65.12 9.92001C65.12 9.33001 65.12 8.74001 65.12 8.15001C65.12 7.98001 65.12 7.86001 65.35 7.86001C66.35 7.88001 67.36 7.83001 68.36 7.89001C69.86 7.99001 70.66 9.21001 70.22 10.64L70.23 10.63Z" fill="white"/>
<path d="M56.22 24.86C56.2 24.76 56.17 24.67 56.13 24.58C53.22 17.03 50.32 9.49 47.42 1.94C47.32 1.68 47.19 1.61 46.93 1.61C44.42 1.61 41.92 1.62 39.41 1.61C39.08 1.61 38.96 1.72 38.85 2.02C36.38 8.47 33.89 14.91 31.4 21.35C30.97 22.47 30.54 23.58 30.12 24.7C29.95 25.14 30.01 25.22 30.43 25.22C32.86 25.22 35.3 25.22 37.73 25.22C37.97 25.22 38.07 25.16 38.14 24.92C38.4 24.04 38.7 23.18 38.97 22.31C39.04 22.07 39.14 21.98 39.4 21.98C41.89 21.99 44.38 21.99 46.87 21.98C47.14 21.98 47.23 22.07 47.3 22.31C47.56 23.19 47.86 24.05 48.13 24.92C48.2 25.15 48.3 25.22 48.54 25.21C49.76 25.2 50.97 25.21 52.19 25.21C53.41 25.21 54.65 25.2 55.88 25.21C56.2 25.21 56.24 25.09 56.19 24.84L56.22 24.86ZM41.31 15.91C41.15 15.91 41.03 15.91 41.1 15.68C41.77 13.62 42.44 11.56 43.11 9.5C43.11 9.48 43.14 9.46 43.17 9.42C43.86 11.57 44.55 13.7 45.26 15.9C43.9 15.9 42.6 15.9 41.3 15.9L41.31 15.91Z" fill="white"/>
</svg>
