<svg width="70" height="72" viewBox="0 0 70 72" fill="none" xmlns="http://www.w3.org/2000/svg">
<path fill-rule="evenodd" clip-rule="evenodd" d="M50.14 70.34H47.61C47.61 68.15 45.91 66.37 43.81 66.37H34.95C32.86 66.37 31.15 68.15 31.15 70.34H28.62C28.62 66.69 31.46 63.72 34.95 63.72H43.81C47.3 63.72 50.14 66.69 50.14 70.34Z" fill="white"/>
<path fill-rule="evenodd" clip-rule="evenodd" d="M61.1 70.34H58.53V67.95C58.53 65.93 57.6799 64.9 56.5099 63.48C55.7999 62.63 55 61.66 54.35 60.37C53.72 59.13 53.4 57.71 53.4 56.13C53.4 53.46 54.45 50.95 56.35 49.06L64.79 40.68C64.89 40.58 64.9399 40.45 64.9399 40.31C64.9399 40.02 64.7 39.78 64.41 39.78H22.59V44.87H7.25995C7.89995 50.59 12.8 55.05 18.74 55.05H25.16V58.71C25.16 61.49 23.9299 62.96 22.9399 64.14C22.0299 65.22 21.31 66.07 21.31 67.93V70.32H18.74V67.93C18.74 65.15 19.97 63.68 20.96 62.5C21.87 61.42 22.59 60.57 22.59 58.71V57.59H18.74C10.96 57.59 4.62 51.31 4.62 43.59V42.32H20.02V37.23H64.41C66.12 37.23 67.5099 38.61 67.5099 40.3C67.5099 41.12 67.19 41.89 66.6 42.47L58.16 50.85C56.74 52.26 55.96 54.13 55.96 56.12C55.96 57.29 56.19 58.33 56.64 59.21C57.17 60.25 57.84 61.06 58.49 61.85C59.77 63.4 61.1 65 61.1 67.94V70.33V70.34Z" fill="white"/>
<path d="M55.93 42.2H21.18V44.68H55.93V42.2Z" fill="white"/>
<path d="M70 68.68H0.48999V71.16H70V68.68Z" fill="white"/>
<path fill-rule="evenodd" clip-rule="evenodd" d="M45.67 2.52C44.97 2.52 44.4 3.08 44.4 3.78V25.19C44.4 25.88 44.97 26.45 45.67 26.45H57.09C57.79 26.45 58.36 25.89 58.36 25.19V3.78C58.36 3.09 57.79 2.52 57.09 2.52H45.67ZM57.09 28.96H45.67C43.57 28.96 41.86 27.27 41.86 25.18V3.78C41.86 1.7 43.57 0 45.67 0H57.09C59.19 0 60.9 1.69 60.9 3.78V25.19C60.9 27.27 59.19 28.97 57.09 28.97V28.96Z" fill="white"/>
<path fill-rule="evenodd" clip-rule="evenodd" d="M61.23 19.03H59.24V16.43H61.23C62.33 16.43 63.22 15.56 63.22 14.48C63.22 13.4 62.33 12.53 61.23 12.53H59.24V9.92999H61.23C63.79 9.92999 65.86 11.97 65.86 14.48C65.86 16.99 63.78 19.03 61.23 19.03Z" fill="white"/>
<path fill-rule="evenodd" clip-rule="evenodd" d="M42.7 19.03H6.58997C4.13997 19.03 2.14996 16.99 2.14996 14.48C2.14996 11.97 4.13997 9.92999 6.58997 9.92999H42.7V12.53H6.58997C5.53997 12.53 4.68994 13.4 4.68994 14.48C4.68994 15.56 5.53997 16.43 6.58997 16.43H42.7V19.03Z" fill="white"/>
<path d="M21.18 4.96001H18.7V7.44001H21.18V4.96001Z" fill="white"/>
<path d="M36.9 4.96001H23.66V7.44001H36.9V4.96001Z" fill="white"/>
</svg>
