<svg width="69" height="85" viewBox="0 0 69 85" fill="none" xmlns="http://www.w3.org/2000/svg">
<path d="M61.59 14.24V47.91C61.59 51.88 60.25 55.78 57.7 58.81C51.52 66.08 42.36 72.21 34.7 76.68C27.04 72.21 17.88 66.08 11.7 58.81C9.11 55.78 7.81 51.88 7.81 47.91V14.24L20.77 10.71C29.9 8.21001 39.54 8.21001 48.67 10.71L61.6 14.24H61.59Z" stroke="white" stroke-width="1.5" stroke-miterlimit="8"/>
<path d="M1.19 8.33V45.62C1.19 52.67 3.73 59.54 8.6 64.6C16.11 72.46 26.19 79.13 34.71 84.12C43.23 79.1 53.28 72.45 60.82 64.6C65.69 59.51 68.23 52.63 68.23 45.62V8.33L48.38 3.17C39.45 0.780002 30.02 0.780002 21.09 3.17L1.21 8.33H1.19Z" stroke="white" stroke-width="1.5" stroke-miterlimit="8"/>
<path d="M34.7 50.2C41.7858 50.2 47.53 44.6439 47.53 37.79C47.53 30.9362 41.7858 25.38 34.7 25.38C27.6142 25.38 21.87 30.9362 21.87 37.79C21.87 44.6439 27.6142 50.2 34.7 50.2Z" stroke="white" stroke-width="1.5" stroke-miterlimit="8"/>
<path d="M29.32 37.58L33.03 41.1L40.08 34.48" stroke="white" stroke-width="1.5" stroke-miterlimit="8"/>
</svg>
