<svg width="651" height="212" viewBox="0 0 651 212" fill="none" xmlns="http://www.w3.org/2000/svg">
<path d="M325.96 2.13L494.46 57.1" stroke="white" stroke-miterlimit="10"/>
<path d="M489.47 45.96L493.99 57.16L482.45 61.82" stroke="white" stroke-miterlimit="10"/>
<path d="M157.96 57.1L326.46 2.13L326.5 156.98" stroke="white" stroke-miterlimit="10"/>
<path d="M162.95 45.96L158.43 57.16L169.97 61.82" stroke="white" stroke-miterlimit="10"/>
<path d="M333.5 149.48L326 156.98L319.21 150.19" stroke="white" stroke-miterlimit="10"/>
<path d="M145.5 67.48H0.5V136.48H145.5V67.48Z" stroke="white" stroke-miterlimit="10"/>
<path d="M24.114 83.538H32.88V85.824H26.796V88.632H32.52V90.936H26.796V94.104H33.258L32.988 96.39H24.114V83.538ZM40.3593 95.202C39.9873 95.622 39.5673 95.964 39.0993 96.228C38.6433 96.492 38.0493 96.624 37.3173 96.624C36.8973 96.624 36.4953 96.57 36.1113 96.462C35.7393 96.354 35.4093 96.186 35.1213 95.958C34.8453 95.73 34.6233 95.442 34.4553 95.094C34.2873 94.734 34.2033 94.308 34.2033 93.816C34.2033 93.168 34.3473 92.64 34.6353 92.232C34.9233 91.824 35.3013 91.506 35.7693 91.278C36.2373 91.05 36.7593 90.888 37.3353 90.792C37.9233 90.696 38.5173 90.636 39.1173 90.612L40.3233 90.558V90.09C40.3233 89.514 40.1613 89.118 39.8373 88.902C39.5253 88.686 39.1533 88.578 38.7213 88.578C37.7253 88.578 37.1553 88.956 37.0113 89.712L34.7073 89.496C34.8753 88.512 35.3073 87.804 36.0033 87.372C36.6993 86.928 37.6353 86.706 38.8113 86.706C39.5313 86.706 40.1433 86.796 40.6473 86.976C41.1513 87.144 41.5533 87.39 41.8533 87.714C42.1653 88.038 42.3873 88.434 42.5193 88.902C42.6633 89.358 42.7353 89.874 42.7353 90.45V96.39H40.3593V95.202ZM40.3053 92.196L39.1893 92.25C38.6613 92.274 38.2353 92.328 37.9113 92.412C37.5873 92.496 37.3353 92.604 37.1553 92.736C36.9873 92.856 36.8733 93 36.8133 93.168C36.7533 93.336 36.7233 93.522 36.7233 93.726C36.7233 94.038 36.8313 94.284 37.0473 94.464C37.2633 94.644 37.5633 94.734 37.9473 94.734C38.5953 94.734 39.1233 94.584 39.5313 94.284C39.7593 94.116 39.9453 93.906 40.0893 93.654C40.2333 93.39 40.3053 93.066 40.3053 92.682V92.196ZM44.8691 86.994H47.3171V88.308C47.6291 87.816 48.0071 87.45 48.4511 87.21C48.8951 86.958 49.3631 86.832 49.8551 86.832C50.0951 86.832 50.2931 86.844 50.4491 86.868C50.6051 86.88 50.7431 86.898 50.8631 86.922L50.5571 89.208C50.2691 89.136 49.9151 89.1 49.4951 89.1C49.2191 89.1 48.9551 89.136 48.7031 89.208C48.4511 89.268 48.2231 89.388 48.0191 89.568C47.8031 89.76 47.6411 89.976 47.5331 90.216C47.4371 90.456 47.3891 90.702 47.3891 90.954V96.39H44.8691V86.994ZM52.4281 83.538H54.9481V96.39H52.4281V83.538ZM57.4434 97.722C57.7914 97.818 58.1454 97.866 58.5054 97.866C58.8414 97.866 59.1114 97.782 59.3154 97.614C59.5194 97.458 59.6934 97.176 59.8374 96.768L60.1254 95.976L56.2194 86.994H59.1354L61.3314 93.168L63.3834 86.994H66.1374L62.3394 96.66C62.1234 97.2 61.9194 97.668 61.7274 98.064C61.5354 98.472 61.3134 98.808 61.0614 99.072C60.8214 99.348 60.5274 99.552 60.1794 99.684C59.8434 99.816 59.4234 99.882 58.9194 99.882C58.6074 99.882 58.2954 99.858 57.9834 99.81C57.6834 99.774 57.3654 99.702 57.0294 99.594L57.4434 97.722ZM73.5181 92.196C73.5781 92.988 73.8301 93.564 74.2741 93.924C74.7301 94.284 75.3961 94.464 76.2721 94.464C76.6921 94.464 77.0461 94.422 77.3341 94.338C77.6221 94.242 77.8561 94.122 78.0361 93.978C78.2161 93.822 78.3421 93.642 78.4141 93.438C78.4981 93.234 78.5401 93.012 78.5401 92.772C78.5401 92.436 78.4141 92.124 78.1621 91.836C77.9101 91.536 77.4481 91.32 76.7761 91.188L75.1021 90.882C74.4421 90.762 73.8601 90.606 73.3561 90.414C72.8521 90.222 72.4261 89.976 72.0781 89.676C71.7421 89.364 71.4841 88.986 71.3041 88.542C71.1241 88.098 71.0341 87.57 71.0341 86.958C71.0341 86.346 71.1541 85.806 71.3941 85.338C71.6461 84.87 71.9881 84.48 72.4201 84.168C72.8641 83.856 73.3921 83.622 74.0041 83.466C74.6161 83.298 75.2881 83.214 76.0201 83.214C76.9561 83.214 77.7361 83.322 78.3601 83.538C78.9841 83.754 79.4881 84.042 79.8721 84.402C80.2561 84.75 80.5381 85.158 80.7181 85.626C80.9101 86.094 81.0361 86.58 81.0961 87.084L78.5581 87.408C78.4261 86.7 78.1681 86.19 77.7841 85.878C77.4121 85.566 76.8421 85.41 76.0741 85.41C75.6181 85.41 75.2401 85.452 74.9401 85.536C74.6521 85.608 74.4181 85.71 74.2381 85.842C74.0581 85.962 73.9321 86.106 73.8601 86.274C73.7881 86.442 73.7521 86.616 73.7521 86.796C73.7521 87.276 73.8841 87.636 74.1481 87.876C74.4241 88.116 74.8861 88.302 75.5341 88.434L77.2981 88.776C78.6901 89.052 79.7101 89.502 80.3581 90.126C81.0061 90.738 81.3301 91.626 81.3301 92.79C81.3301 93.354 81.2221 93.876 81.0061 94.356C80.8021 94.824 80.4901 95.238 80.0701 95.598C79.6621 95.946 79.1461 96.216 78.5221 96.408C77.8981 96.612 77.1661 96.714 76.3261 96.714C74.5741 96.714 73.2301 96.342 72.2941 95.598C71.3701 94.842 70.8721 93.708 70.8001 92.196H73.5181ZM83.7654 88.956H82.2894V86.994H83.7654V84.492H86.2854V86.994H88.4454V88.956H86.2854V93.294C86.2854 93.786 86.3874 94.122 86.5914 94.302C86.7954 94.47 87.0594 94.554 87.3834 94.554C87.5514 94.554 87.7194 94.548 87.8874 94.536C88.0674 94.512 88.2414 94.476 88.4094 94.428L88.7694 96.282C88.4214 96.39 88.0794 96.462 87.7434 96.498C87.4194 96.546 87.1074 96.57 86.8074 96.57C85.7754 96.57 85.0074 96.324 84.5034 95.832C84.0114 95.34 83.7654 94.512 83.7654 93.348V88.956ZM95.5897 95.202C95.2177 95.622 94.7977 95.964 94.3297 96.228C93.8737 96.492 93.2797 96.624 92.5477 96.624C92.1277 96.624 91.7257 96.57 91.3417 96.462C90.9697 96.354 90.6397 96.186 90.3517 95.958C90.0757 95.73 89.8537 95.442 89.6857 95.094C89.5177 94.734 89.4337 94.308 89.4337 93.816C89.4337 93.168 89.5777 92.64 89.8657 92.232C90.1537 91.824 90.5317 91.506 90.9997 91.278C91.4677 91.05 91.9897 90.888 92.5657 90.792C93.1537 90.696 93.7477 90.636 94.3477 90.612L95.5537 90.558V90.09C95.5537 89.514 95.3917 89.118 95.0677 88.902C94.7557 88.686 94.3837 88.578 93.9517 88.578C92.9557 88.578 92.3857 88.956 92.2417 89.712L89.9377 89.496C90.1057 88.512 90.5377 87.804 91.2337 87.372C91.9297 86.928 92.8657 86.706 94.0417 86.706C94.7617 86.706 95.3737 86.796 95.8777 86.976C96.3817 87.144 96.7837 87.39 97.0837 87.714C97.3957 88.038 97.6177 88.434 97.7497 88.902C97.8937 89.358 97.9657 89.874 97.9657 90.45V96.39H95.5897V95.202ZM95.5357 92.196L94.4197 92.25C93.8917 92.274 93.4657 92.328 93.1417 92.412C92.8177 92.496 92.5657 92.604 92.3857 92.736C92.2177 92.856 92.1037 93 92.0437 93.168C91.9837 93.336 91.9537 93.522 91.9537 93.726C91.9537 94.038 92.0617 94.284 92.2777 94.464C92.4937 94.644 92.7937 94.734 93.1777 94.734C93.8257 94.734 94.3537 94.584 94.7617 94.284C94.9897 94.116 95.1757 93.906 95.3197 93.654C95.4637 93.39 95.5357 93.066 95.5357 92.682V92.196ZM102.728 96.984C102.776 97.224 102.842 97.416 102.926 97.56C103.022 97.704 103.142 97.818 103.286 97.902C103.442 97.986 103.622 98.04 103.826 98.064C104.042 98.1 104.3 98.118 104.6 98.118C105.068 98.118 105.434 98.028 105.698 97.848C105.962 97.68 106.154 97.452 106.274 97.164C106.406 96.876 106.484 96.546 106.508 96.174C106.544 95.802 106.562 95.418 106.562 95.022V94.734C106.25 95.19 105.848 95.538 105.356 95.778C104.876 96.006 104.33 96.12 103.718 96.12C102.398 96.12 101.408 95.694 100.748 94.842C100.1 93.99 99.7756 92.844 99.7756 91.404C99.7756 90.72 99.8656 90.09 100.046 89.514C100.238 88.938 100.508 88.446 100.856 88.038C101.204 87.618 101.63 87.294 102.134 87.066C102.65 86.826 103.226 86.706 103.862 86.706C104.366 86.706 104.852 86.802 105.32 86.994C105.8 87.186 106.238 87.54 106.634 88.056V86.994H109.082V95.076C109.082 95.868 108.998 96.57 108.83 97.182C108.674 97.806 108.416 98.334 108.056 98.766C107.708 99.198 107.246 99.522 106.67 99.738C106.106 99.966 105.416 100.08 104.6 100.08C103.844 100.08 103.196 100.014 102.656 99.882C102.128 99.762 101.69 99.57 101.342 99.306C100.994 99.054 100.724 98.73 100.532 98.334C100.352 97.95 100.232 97.5 100.172 96.984H102.728ZM106.58 91.368C106.58 90.804 106.514 90.348 106.382 90C106.262 89.652 106.1 89.388 105.896 89.208C105.692 89.016 105.464 88.89 105.212 88.83C104.96 88.77 104.708 88.74 104.456 88.74C104.18 88.74 103.916 88.788 103.664 88.884C103.424 88.98 103.208 89.136 103.016 89.352C102.836 89.568 102.692 89.844 102.584 90.18C102.476 90.516 102.422 90.918 102.422 91.386C102.422 92.382 102.608 93.09 102.98 93.51C103.364 93.918 103.838 94.122 104.402 94.122C104.714 94.122 105.002 94.08 105.266 93.996C105.542 93.9 105.776 93.756 105.968 93.564C106.16 93.36 106.31 93.102 106.418 92.79C106.526 92.466 106.58 92.076 106.58 91.62V91.368ZM119.918 93.456C119.75 94.512 119.324 95.316 118.64 95.868C117.968 96.408 116.984 96.678 115.688 96.678C114.128 96.678 112.952 96.246 112.16 95.382C111.38 94.518 110.99 93.294 110.99 91.71C110.99 90.918 111.104 90.216 111.332 89.604C111.56 88.98 111.878 88.452 112.286 88.02C112.706 87.588 113.204 87.264 113.78 87.048C114.356 86.82 114.992 86.706 115.688 86.706C117.128 86.706 118.208 87.12 118.928 87.948C119.66 88.776 120.026 89.892 120.026 91.296V92.304H113.51C113.534 93.06 113.726 93.654 114.086 94.086C114.446 94.506 114.986 94.716 115.706 94.716C116.702 94.716 117.29 94.296 117.47 93.456H119.918ZM117.596 90.648C117.596 90 117.434 89.496 117.11 89.136C116.798 88.776 116.306 88.596 115.634 88.596C115.298 88.596 115.004 88.65 114.752 88.758C114.5 88.866 114.284 89.016 114.104 89.208C113.936 89.388 113.804 89.604 113.708 89.856C113.612 90.096 113.558 90.36 113.546 90.648H117.596Z" fill="white"/>
<path d="M55.85 110.86H51.98V108.538H62.42V110.86H58.55V121.39H55.85V110.86ZM70.2521 118.456C70.0841 119.512 69.6581 120.316 68.9741 120.868C68.3021 121.408 67.3181 121.678 66.0221 121.678C64.4621 121.678 63.2861 121.246 62.4941 120.382C61.7141 119.518 61.3241 118.294 61.3241 116.71C61.3241 115.918 61.4381 115.216 61.6661 114.604C61.8941 113.98 62.2121 113.452 62.6201 113.02C63.0401 112.588 63.5381 112.264 64.1141 112.048C64.6901 111.82 65.3261 111.706 66.0221 111.706C67.4621 111.706 68.5421 112.12 69.2621 112.948C69.9941 113.776 70.3601 114.892 70.3601 116.296V117.304H63.8441C63.8681 118.06 64.0601 118.654 64.4201 119.086C64.7801 119.506 65.3201 119.716 66.0401 119.716C67.0361 119.716 67.6241 119.296 67.8041 118.456H70.2521ZM67.9301 115.648C67.9301 115 67.7681 114.496 67.4441 114.136C67.1321 113.776 66.6401 113.596 65.9681 113.596C65.6321 113.596 65.3381 113.65 65.0861 113.758C64.8341 113.866 64.6181 114.016 64.4381 114.208C64.2701 114.388 64.1381 114.604 64.0421 114.856C63.9461 115.096 63.8921 115.36 63.8801 115.648H67.9301ZM80.6897 117.988C80.5937 119.116 80.2037 120.016 79.5197 120.688C78.8477 121.348 77.8337 121.678 76.4777 121.678C75.6857 121.678 75.0017 121.558 74.4257 121.318C73.8497 121.078 73.3757 120.742 73.0037 120.31C72.6437 119.878 72.3737 119.356 72.1937 118.744C72.0137 118.132 71.9237 117.454 71.9237 116.71C71.9237 115.966 72.0257 115.288 72.2297 114.676C72.4457 114.052 72.7517 113.524 73.1477 113.092C73.5437 112.648 74.0297 112.306 74.6057 112.066C75.1817 111.826 75.8417 111.706 76.5857 111.706C77.2217 111.706 77.7737 111.79 78.2417 111.958C78.7217 112.114 79.1237 112.336 79.4477 112.624C79.7717 112.912 80.0237 113.26 80.2037 113.668C80.3837 114.064 80.5037 114.502 80.5637 114.982L78.0257 115.324C77.9657 114.844 77.8277 114.46 77.6117 114.172C77.3957 113.872 77.0237 113.722 76.4957 113.722C76.1117 113.722 75.7937 113.806 75.5417 113.974C75.2897 114.13 75.0857 114.346 74.9297 114.622C74.7857 114.898 74.6837 115.216 74.6237 115.576C74.5637 115.924 74.5337 116.29 74.5337 116.674C74.5337 117.07 74.5637 117.448 74.6237 117.808C74.6837 118.168 74.7857 118.486 74.9297 118.762C75.0737 119.038 75.2717 119.26 75.5237 119.428C75.7757 119.584 76.0937 119.662 76.4777 119.662C76.9817 119.662 77.3717 119.518 77.6477 119.23C77.9237 118.942 78.0857 118.528 78.1337 117.988H80.6897ZM82.4958 108.538H85.0158V113.182C85.3878 112.678 85.8198 112.306 86.3118 112.066C86.8038 111.826 87.3198 111.706 87.8598 111.706C88.9278 111.706 89.7198 111.988 90.2358 112.552C90.7518 113.104 91.0098 113.98 91.0098 115.18V121.39H88.4898V115.522C88.4898 114.862 88.3638 114.412 88.1118 114.172C87.8598 113.932 87.5238 113.812 87.1038 113.812C86.7798 113.812 86.4978 113.86 86.2578 113.956C86.0298 114.052 85.8138 114.19 85.6098 114.37C85.4418 114.538 85.2978 114.742 85.1778 114.982C85.0698 115.21 85.0158 115.462 85.0158 115.738V121.39H82.4958V108.538Z" fill="white"/>
<path d="M650.5 67.48H505.5V136.48H650.5V67.48Z" stroke="white" stroke-miterlimit="10"/>
<path d="M528.688 96.714C527.728 96.714 526.87 96.558 526.114 96.246C525.358 95.934 524.716 95.484 524.188 94.896C523.66 94.308 523.252 93.6 522.964 92.772C522.688 91.944 522.55 91.008 522.55 89.964C522.55 88.92 522.688 87.984 522.964 87.156C523.252 86.328 523.66 85.62 524.188 85.032C524.728 84.444 525.376 83.994 526.132 83.682C526.888 83.37 527.74 83.214 528.688 83.214C529.648 83.214 530.506 83.37 531.262 83.682C532.018 83.994 532.654 84.444 533.17 85.032C533.698 85.62 534.1 86.328 534.376 87.156C534.652 87.984 534.79 88.92 534.79 89.964C534.79 91.008 534.652 91.944 534.376 92.772C534.112 93.6 533.716 94.308 533.188 94.896C532.672 95.484 532.036 95.934 531.28 96.246C530.524 96.558 529.66 96.714 528.688 96.714ZM528.67 94.41C529.798 94.41 530.638 94.026 531.19 93.258C531.742 92.49 532.018 91.392 532.018 89.964C532.018 88.548 531.742 87.456 531.19 86.688C530.638 85.908 529.798 85.518 528.67 85.518C527.542 85.518 526.702 85.908 526.15 86.688C525.598 87.456 525.322 88.548 525.322 89.964C525.322 91.392 525.598 92.49 526.15 93.258C526.702 94.026 527.542 94.41 528.67 94.41ZM536.811 86.994H539.259V88.29C539.631 87.738 540.069 87.336 540.573 87.084C541.089 86.832 541.623 86.706 542.175 86.706C543.243 86.706 544.035 86.988 544.551 87.552C545.067 88.104 545.325 88.98 545.325 90.18V96.39H542.805V90.522C542.805 89.862 542.679 89.412 542.427 89.172C542.175 88.932 541.839 88.812 541.419 88.812C541.095 88.812 540.813 88.86 540.573 88.956C540.345 89.052 540.129 89.19 539.925 89.37C539.757 89.538 539.613 89.742 539.493 89.982C539.385 90.21 539.331 90.462 539.331 90.738V96.39H536.811V86.994ZM547.157 89.766H552.539V92.25H547.157V89.766ZM555.956 85.86H552.086V83.538H562.526V85.86H558.656V96.39H555.956V85.86ZM564.004 83.538H566.524V88.182C566.896 87.678 567.328 87.306 567.82 87.066C568.312 86.826 568.828 86.706 569.368 86.706C570.436 86.706 571.228 86.988 571.744 87.552C572.26 88.104 572.518 88.98 572.518 90.18V96.39H569.998V90.522C569.998 89.862 569.872 89.412 569.62 89.172C569.368 88.932 569.032 88.812 568.612 88.812C568.288 88.812 568.006 88.86 567.766 88.956C567.538 89.052 567.322 89.19 567.118 89.37C566.95 89.538 566.806 89.742 566.686 89.982C566.578 90.21 566.524 90.462 566.524 90.738V96.39H564.004V83.538ZM583.261 93.456C583.093 94.512 582.667 95.316 581.983 95.868C581.311 96.408 580.327 96.678 579.031 96.678C577.471 96.678 576.295 96.246 575.503 95.382C574.723 94.518 574.333 93.294 574.333 91.71C574.333 90.918 574.447 90.216 574.675 89.604C574.903 88.98 575.221 88.452 575.629 88.02C576.049 87.588 576.547 87.264 577.123 87.048C577.699 86.82 578.335 86.706 579.031 86.706C580.471 86.706 581.551 87.12 582.271 87.948C583.003 88.776 583.369 89.892 583.369 91.296V92.304H576.853C576.877 93.06 577.069 93.654 577.429 94.086C577.789 94.506 578.329 94.716 579.049 94.716C580.045 94.716 580.633 94.296 580.813 93.456H583.261ZM580.939 90.648C580.939 90 580.777 89.496 580.453 89.136C580.141 88.776 579.649 88.596 578.977 88.596C578.641 88.596 578.347 88.65 578.095 88.758C577.843 88.866 577.627 89.016 577.447 89.208C577.279 89.388 577.147 89.604 577.051 89.856C576.955 90.096 576.901 90.36 576.889 90.648H580.939ZM585.126 89.766H590.508V92.25H585.126V89.766ZM594.71 92.196C594.77 92.988 595.022 93.564 595.466 93.924C595.922 94.284 596.588 94.464 597.464 94.464C597.884 94.464 598.238 94.422 598.526 94.338C598.814 94.242 599.048 94.122 599.228 93.978C599.408 93.822 599.534 93.642 599.606 93.438C599.69 93.234 599.732 93.012 599.732 92.772C599.732 92.436 599.606 92.124 599.354 91.836C599.102 91.536 598.64 91.32 597.968 91.188L596.294 90.882C595.634 90.762 595.052 90.606 594.548 90.414C594.044 90.222 593.618 89.976 593.27 89.676C592.934 89.364 592.676 88.986 592.496 88.542C592.316 88.098 592.226 87.57 592.226 86.958C592.226 86.346 592.346 85.806 592.586 85.338C592.838 84.87 593.18 84.48 593.612 84.168C594.056 83.856 594.584 83.622 595.196 83.466C595.808 83.298 596.48 83.214 597.212 83.214C598.148 83.214 598.928 83.322 599.552 83.538C600.176 83.754 600.68 84.042 601.064 84.402C601.448 84.75 601.73 85.158 601.91 85.626C602.102 86.094 602.228 86.58 602.288 87.084L599.75 87.408C599.618 86.7 599.36 86.19 598.976 85.878C598.604 85.566 598.034 85.41 597.266 85.41C596.81 85.41 596.432 85.452 596.132 85.536C595.844 85.608 595.61 85.71 595.43 85.842C595.25 85.962 595.124 86.106 595.052 86.274C594.98 86.442 594.944 86.616 594.944 86.796C594.944 87.276 595.076 87.636 595.34 87.876C595.616 88.116 596.078 88.302 596.726 88.434L598.49 88.776C599.882 89.052 600.902 89.502 601.55 90.126C602.198 90.738 602.522 91.626 602.522 92.79C602.522 93.354 602.414 93.876 602.198 94.356C601.994 94.824 601.682 95.238 601.262 95.598C600.854 95.946 600.338 96.216 599.714 96.408C599.09 96.612 598.358 96.714 597.518 96.714C595.766 96.714 594.422 96.342 593.486 95.598C592.562 94.842 592.064 93.708 591.992 92.196H594.71ZM604.205 83.538H606.725V88.182C607.097 87.678 607.529 87.306 608.021 87.066C608.513 86.826 609.029 86.706 609.569 86.706C610.637 86.706 611.429 86.988 611.945 87.552C612.461 88.104 612.719 88.98 612.719 90.18V96.39H610.199V90.522C610.199 89.862 610.073 89.412 609.821 89.172C609.569 88.932 609.233 88.812 608.813 88.812C608.489 88.812 608.207 88.86 607.967 88.956C607.739 89.052 607.523 89.19 607.319 89.37C607.151 89.538 607.007 89.742 606.887 89.982C606.779 90.21 606.725 90.462 606.725 90.738V96.39H604.205V83.538ZM623.462 93.456C623.294 94.512 622.868 95.316 622.184 95.868C621.512 96.408 620.528 96.678 619.232 96.678C617.672 96.678 616.496 96.246 615.704 95.382C614.924 94.518 614.534 93.294 614.534 91.71C614.534 90.918 614.648 90.216 614.876 89.604C615.104 88.98 615.422 88.452 615.83 88.02C616.25 87.588 616.748 87.264 617.324 87.048C617.9 86.82 618.536 86.706 619.232 86.706C620.672 86.706 621.752 87.12 622.472 87.948C623.204 88.776 623.57 89.892 623.57 91.296V92.304H617.054C617.078 93.06 617.27 93.654 617.63 94.086C617.99 94.506 618.53 94.716 619.25 94.716C620.246 94.716 620.834 94.296 621.014 93.456H623.462ZM621.14 90.648C621.14 90 620.978 89.496 620.654 89.136C620.342 88.776 619.85 88.596 619.178 88.596C618.842 88.596 618.548 88.65 618.296 88.758C618.044 88.866 617.828 89.016 617.648 89.208C617.48 89.388 617.348 89.604 617.252 89.856C617.156 90.096 617.102 90.36 617.09 90.648H621.14ZM625.475 83.538H627.995V96.39H625.475V83.538ZM630.851 88.956H629.375V86.994H630.851V86.688C630.851 86.112 630.935 85.614 631.103 85.194C631.271 84.774 631.499 84.432 631.787 84.168C632.087 83.904 632.435 83.712 632.831 83.592C633.227 83.46 633.659 83.394 634.127 83.394C634.427 83.394 634.739 83.412 635.063 83.448C635.399 83.484 635.741 83.556 636.089 83.664L635.747 85.5C635.363 85.404 634.997 85.356 634.649 85.356C634.325 85.356 634.031 85.452 633.767 85.644C633.503 85.824 633.371 86.154 633.371 86.634V86.994H635.549V88.956H633.371V96.39H630.851V88.956Z" fill="white"/>
<path d="M562.84 110.86H558.97V108.538H569.41V110.86H565.54V121.39H562.84V110.86ZM577.242 118.456C577.074 119.512 576.648 120.316 575.964 120.868C575.292 121.408 574.308 121.678 573.012 121.678C571.452 121.678 570.276 121.246 569.484 120.382C568.704 119.518 568.314 118.294 568.314 116.71C568.314 115.918 568.428 115.216 568.656 114.604C568.884 113.98 569.202 113.452 569.61 113.02C570.03 112.588 570.528 112.264 571.104 112.048C571.68 111.82 572.316 111.706 573.012 111.706C574.452 111.706 575.532 112.12 576.252 112.948C576.984 113.776 577.35 114.892 577.35 116.296V117.304H570.834C570.858 118.06 571.05 118.654 571.41 119.086C571.77 119.506 572.31 119.716 573.03 119.716C574.026 119.716 574.614 119.296 574.794 118.456H577.242ZM574.92 115.648C574.92 115 574.758 114.496 574.434 114.136C574.122 113.776 573.63 113.596 572.958 113.596C572.622 113.596 572.328 113.65 572.076 113.758C571.824 113.866 571.608 114.016 571.428 114.208C571.26 114.388 571.128 114.604 571.032 114.856C570.936 115.096 570.882 115.36 570.87 115.648H574.92ZM587.68 117.988C587.584 119.116 587.194 120.016 586.51 120.688C585.838 121.348 584.824 121.678 583.468 121.678C582.676 121.678 581.992 121.558 581.416 121.318C580.84 121.078 580.366 120.742 579.994 120.31C579.634 119.878 579.364 119.356 579.184 118.744C579.004 118.132 578.914 117.454 578.914 116.71C578.914 115.966 579.016 115.288 579.22 114.676C579.436 114.052 579.742 113.524 580.138 113.092C580.534 112.648 581.02 112.306 581.596 112.066C582.172 111.826 582.832 111.706 583.576 111.706C584.212 111.706 584.764 111.79 585.232 111.958C585.712 112.114 586.114 112.336 586.438 112.624C586.762 112.912 587.014 113.26 587.194 113.668C587.374 114.064 587.494 114.502 587.554 114.982L585.016 115.324C584.956 114.844 584.818 114.46 584.602 114.172C584.386 113.872 584.014 113.722 583.486 113.722C583.102 113.722 582.784 113.806 582.532 113.974C582.28 114.13 582.076 114.346 581.92 114.622C581.776 114.898 581.674 115.216 581.614 115.576C581.554 115.924 581.524 116.29 581.524 116.674C581.524 117.07 581.554 117.448 581.614 117.808C581.674 118.168 581.776 118.486 581.92 118.762C582.064 119.038 582.262 119.26 582.514 119.428C582.766 119.584 583.084 119.662 583.468 119.662C583.972 119.662 584.362 119.518 584.638 119.23C584.914 118.942 585.076 118.528 585.124 117.988H587.68ZM589.486 108.538H592.006V113.182C592.378 112.678 592.81 112.306 593.302 112.066C593.794 111.826 594.31 111.706 594.85 111.706C595.918 111.706 596.71 111.988 597.226 112.552C597.742 113.104 598 113.98 598 115.18V121.39H595.48V115.522C595.48 114.862 595.354 114.412 595.102 114.172C594.85 113.932 594.514 113.812 594.094 113.812C593.77 113.812 593.488 113.86 593.248 113.956C593.02 114.052 592.804 114.19 592.6 114.37C592.432 114.538 592.288 114.742 592.168 114.982C592.06 115.21 592.006 115.462 592.006 115.738V121.39H589.486V108.538Z" fill="white"/>
<path d="M398 173.98H254V210.98H398V173.98Z" stroke="white" stroke-miterlimit="10"/>
<path d="M270.184 185.708H272.74L277.564 198.56H274.684L273.658 195.59H269.158L268.132 198.56H265.36L270.184 185.708ZM272.956 193.376L271.39 188.768L269.842 193.376H272.956ZM284.835 197.318C284.115 198.338 283.143 198.848 281.919 198.848C280.599 198.848 279.615 198.404 278.967 197.516C278.319 196.628 277.995 195.398 277.995 193.826C277.995 193.094 278.085 192.428 278.265 191.828C278.457 191.216 278.727 190.694 279.075 190.262C279.423 189.818 279.849 189.476 280.353 189.236C280.857 188.996 281.427 188.876 282.063 188.876C282.531 188.876 282.993 188.96 283.449 189.128C283.917 189.296 284.355 189.62 284.763 190.1V185.708H287.283V198.56H284.835V197.318ZM284.781 193.754C284.781 193.154 284.727 192.674 284.619 192.314C284.523 191.954 284.361 191.66 284.133 191.432C283.917 191.216 283.677 191.078 283.413 191.018C283.161 190.946 282.909 190.91 282.657 190.91C282.381 190.91 282.117 190.964 281.865 191.072C281.625 191.18 281.409 191.348 281.217 191.576C281.037 191.804 280.893 192.104 280.785 192.476C280.677 192.848 280.623 193.292 280.623 193.808C280.623 194.372 280.671 194.846 280.767 195.23C280.875 195.602 281.019 195.908 281.199 196.148C281.379 196.376 281.589 196.544 281.829 196.652C282.069 196.748 282.327 196.796 282.603 196.796C283.203 196.796 283.695 196.622 284.079 196.274C284.319 196.034 284.493 195.746 284.601 195.41C284.721 195.062 284.781 194.618 284.781 194.078V193.754ZM295.097 197.372C294.725 197.792 294.305 198.134 293.837 198.398C293.381 198.662 292.787 198.794 292.055 198.794C291.635 198.794 291.233 198.74 290.849 198.632C290.477 198.524 290.147 198.356 289.859 198.128C289.583 197.9 289.361 197.612 289.193 197.264C289.025 196.904 288.941 196.478 288.941 195.986C288.941 195.338 289.085 194.81 289.373 194.402C289.661 193.994 290.039 193.676 290.507 193.448C290.975 193.22 291.497 193.058 292.073 192.962C292.661 192.866 293.255 192.806 293.855 192.782L295.061 192.728V192.26C295.061 191.684 294.899 191.288 294.575 191.072C294.263 190.856 293.891 190.748 293.459 190.748C292.463 190.748 291.893 191.126 291.749 191.882L289.445 191.666C289.613 190.682 290.045 189.974 290.741 189.542C291.437 189.098 292.373 188.876 293.549 188.876C294.269 188.876 294.881 188.966 295.385 189.146C295.889 189.314 296.291 189.56 296.591 189.884C296.903 190.208 297.125 190.604 297.257 191.072C297.401 191.528 297.473 192.044 297.473 192.62V198.56H295.097V197.372ZM295.043 194.366L293.927 194.42C293.399 194.444 292.973 194.498 292.649 194.582C292.325 194.666 292.073 194.774 291.893 194.906C291.725 195.026 291.611 195.17 291.551 195.338C291.491 195.506 291.461 195.692 291.461 195.896C291.461 196.208 291.569 196.454 291.785 196.634C292.001 196.814 292.301 196.904 292.685 196.904C293.333 196.904 293.861 196.754 294.269 196.454C294.497 196.286 294.683 196.076 294.827 195.824C294.971 195.56 295.043 195.236 295.043 194.852V194.366ZM299.607 189.164H302.055V190.406C302.775 189.386 303.759 188.876 305.007 188.876C306.315 188.876 307.293 189.32 307.941 190.208C308.589 191.096 308.913 192.314 308.913 193.862C308.913 194.606 308.817 195.284 308.625 195.896C308.445 196.508 308.175 197.036 307.815 197.48C307.467 197.912 307.041 198.248 306.537 198.488C306.033 198.728 305.463 198.848 304.827 198.848C304.359 198.848 303.891 198.764 303.423 198.596C302.967 198.428 302.535 198.092 302.127 197.588V202.052H299.607V189.164ZM302.109 193.934C302.109 194.546 302.157 195.038 302.253 195.41C302.361 195.77 302.529 196.064 302.757 196.292C302.997 196.508 303.237 196.652 303.477 196.724C303.729 196.784 303.981 196.814 304.233 196.814C304.509 196.814 304.773 196.76 305.025 196.652C305.277 196.544 305.493 196.376 305.673 196.148C305.865 195.908 306.015 195.602 306.123 195.23C306.231 194.858 306.285 194.408 306.285 193.88C306.285 193.328 306.231 192.866 306.123 192.494C306.027 192.122 305.889 191.822 305.709 191.594C305.529 191.354 305.313 191.186 305.061 191.09C304.821 190.982 304.563 190.928 304.287 190.928C303.975 190.928 303.705 190.97 303.477 191.054C303.249 191.138 303.027 191.27 302.811 191.45C302.571 191.678 302.391 191.966 302.271 192.314C302.163 192.662 302.109 193.106 302.109 193.646V193.934ZM311.397 191.126H309.921V189.164H311.397V186.662H313.917V189.164H316.077V191.126H313.917V195.464C313.917 195.956 314.019 196.292 314.223 196.472C314.427 196.64 314.691 196.724 315.015 196.724C315.183 196.724 315.351 196.718 315.519 196.706C315.699 196.682 315.873 196.646 316.041 196.598L316.401 198.452C316.053 198.56 315.711 198.632 315.375 198.668C315.051 198.716 314.739 198.74 314.439 198.74C313.407 198.74 312.639 198.494 312.135 198.002C311.643 197.51 311.397 196.682 311.397 195.518V191.126ZM317.66 189.164H320.18V198.56H317.66V189.164ZM317.624 185.708H320.216V187.976H317.624V185.708ZM321.451 189.164H324.367L326.473 195.698L328.579 189.164H331.369L327.661 198.56H325.141L321.451 189.164ZM340.695 195.626C340.527 196.682 340.101 197.486 339.417 198.038C338.745 198.578 337.761 198.848 336.465 198.848C334.905 198.848 333.729 198.416 332.937 197.552C332.157 196.688 331.767 195.464 331.767 193.88C331.767 193.088 331.881 192.386 332.109 191.774C332.337 191.15 332.655 190.622 333.063 190.19C333.483 189.758 333.981 189.434 334.557 189.218C335.133 188.99 335.769 188.876 336.465 188.876C337.905 188.876 338.985 189.29 339.705 190.118C340.437 190.946 340.803 192.062 340.803 193.466V194.474H334.287C334.311 195.23 334.503 195.824 334.863 196.256C335.223 196.676 335.763 196.886 336.483 196.886C337.479 196.886 338.067 196.466 338.247 195.626H340.695ZM338.373 192.818C338.373 192.17 338.211 191.666 337.887 191.306C337.575 190.946 337.083 190.766 336.411 190.766C336.075 190.766 335.781 190.82 335.529 190.928C335.277 191.036 335.061 191.186 334.881 191.378C334.713 191.558 334.581 191.774 334.485 192.026C334.389 192.266 334.335 192.53 334.323 192.818H338.373ZM349.812 188.03H345.942V185.708H356.382V188.03H352.512V198.56H349.812V188.03ZM364.214 195.626C364.046 196.682 363.62 197.486 362.936 198.038C362.264 198.578 361.28 198.848 359.984 198.848C358.424 198.848 357.248 198.416 356.456 197.552C355.676 196.688 355.286 195.464 355.286 193.88C355.286 193.088 355.4 192.386 355.628 191.774C355.856 191.15 356.174 190.622 356.582 190.19C357.002 189.758 357.5 189.434 358.076 189.218C358.652 188.99 359.288 188.876 359.984 188.876C361.424 188.876 362.504 189.29 363.224 190.118C363.956 190.946 364.322 192.062 364.322 193.466V194.474H357.806C357.83 195.23 358.022 195.824 358.382 196.256C358.742 196.676 359.282 196.886 360.002 196.886C360.998 196.886 361.586 196.466 361.766 195.626H364.214ZM361.892 192.818C361.892 192.17 361.73 191.666 361.406 191.306C361.094 190.946 360.602 190.766 359.93 190.766C359.594 190.766 359.3 190.82 359.048 190.928C358.796 191.036 358.58 191.186 358.4 191.378C358.232 191.558 358.1 191.774 358.004 192.026C357.908 192.266 357.854 192.53 357.842 192.818H361.892ZM374.652 195.158C374.556 196.286 374.166 197.186 373.482 197.858C372.81 198.518 371.796 198.848 370.44 198.848C369.648 198.848 368.964 198.728 368.388 198.488C367.812 198.248 367.338 197.912 366.966 197.48C366.606 197.048 366.336 196.526 366.156 195.914C365.976 195.302 365.886 194.624 365.886 193.88C365.886 193.136 365.988 192.458 366.192 191.846C366.408 191.222 366.714 190.694 367.11 190.262C367.506 189.818 367.992 189.476 368.568 189.236C369.144 188.996 369.804 188.876 370.548 188.876C371.184 188.876 371.736 188.96 372.204 189.128C372.684 189.284 373.086 189.506 373.41 189.794C373.734 190.082 373.986 190.43 374.166 190.838C374.346 191.234 374.466 191.672 374.526 192.152L371.988 192.494C371.928 192.014 371.79 191.63 371.574 191.342C371.358 191.042 370.986 190.892 370.458 190.892C370.074 190.892 369.756 190.976 369.504 191.144C369.252 191.3 369.048 191.516 368.892 191.792C368.748 192.068 368.646 192.386 368.586 192.746C368.526 193.094 368.496 193.46 368.496 193.844C368.496 194.24 368.526 194.618 368.586 194.978C368.646 195.338 368.748 195.656 368.892 195.932C369.036 196.208 369.234 196.43 369.486 196.598C369.738 196.754 370.056 196.832 370.44 196.832C370.944 196.832 371.334 196.688 371.61 196.4C371.886 196.112 372.048 195.698 372.096 195.158H374.652ZM376.458 185.708H378.978V190.352C379.35 189.848 379.782 189.476 380.274 189.236C380.766 188.996 381.282 188.876 381.822 188.876C382.89 188.876 383.682 189.158 384.198 189.722C384.714 190.274 384.972 191.15 384.972 192.35V198.56H382.452V192.692C382.452 192.032 382.326 191.582 382.074 191.342C381.822 191.102 381.486 190.982 381.066 190.982C380.742 190.982 380.46 191.03 380.22 191.126C379.992 191.222 379.776 191.36 379.572 191.54C379.404 191.708 379.26 191.912 379.14 192.152C379.032 192.38 378.978 192.632 378.978 192.908V198.56H376.458V185.708Z" fill="white"/>
<path d="M379 0.980003H273V34.98H379V0.980003Z" fill="white"/>
<path d="M288.232 19.766C288.292 20.558 288.544 21.134 288.988 21.494C289.444 21.854 290.11 22.034 290.986 22.034C291.406 22.034 291.76 21.992 292.048 21.908C292.336 21.812 292.57 21.692 292.75 21.548C292.93 21.392 293.056 21.212 293.128 21.008C293.212 20.804 293.254 20.582 293.254 20.342C293.254 20.006 293.128 19.694 292.876 19.406C292.624 19.106 292.162 18.89 291.49 18.758L289.816 18.452C289.156 18.332 288.574 18.176 288.07 17.984C287.566 17.792 287.14 17.546 286.792 17.246C286.456 16.934 286.198 16.556 286.018 16.112C285.838 15.668 285.748 15.14 285.748 14.528C285.748 13.916 285.868 13.376 286.108 12.908C286.36 12.44 286.702 12.05 287.134 11.738C287.578 11.426 288.106 11.192 288.718 11.036C289.33 10.868 290.002 10.784 290.734 10.784C291.67 10.784 292.45 10.892 293.074 11.108C293.698 11.324 294.202 11.612 294.586 11.972C294.97 12.32 295.252 12.728 295.432 13.196C295.624 13.664 295.75 14.15 295.81 14.654L293.272 14.978C293.14 14.27 292.882 13.76 292.498 13.448C292.126 13.136 291.556 12.98 290.788 12.98C290.332 12.98 289.954 13.022 289.654 13.106C289.366 13.178 289.132 13.28 288.952 13.412C288.772 13.532 288.646 13.676 288.574 13.844C288.502 14.012 288.466 14.186 288.466 14.366C288.466 14.846 288.598 15.206 288.862 15.446C289.138 15.686 289.6 15.872 290.248 16.004L292.012 16.346C293.404 16.622 294.424 17.072 295.072 17.696C295.72 18.308 296.044 19.196 296.044 20.36C296.044 20.924 295.936 21.446 295.72 21.926C295.516 22.394 295.204 22.808 294.784 23.168C294.376 23.516 293.86 23.786 293.236 23.978C292.612 24.182 291.88 24.284 291.04 24.284C289.288 24.284 287.944 23.912 287.008 23.168C286.084 22.412 285.586 21.278 285.514 19.766H288.232ZM302.331 24.248C300.819 24.248 299.649 23.816 298.821 22.952C297.993 22.088 297.579 20.852 297.579 19.244C297.579 18.476 297.687 17.786 297.903 17.174C298.131 16.55 298.449 16.028 298.857 15.608C299.277 15.176 299.781 14.846 300.369 14.618C300.957 14.39 301.611 14.276 302.331 14.276C303.063 14.276 303.723 14.39 304.311 14.618C304.899 14.846 305.397 15.176 305.805 15.608C306.225 16.028 306.543 16.55 306.759 17.174C306.975 17.786 307.083 18.476 307.083 19.244C307.083 20.024 306.969 20.726 306.741 21.35C306.525 21.962 306.207 22.484 305.787 22.916C305.379 23.348 304.881 23.678 304.293 23.906C303.705 24.134 303.051 24.248 302.331 24.248ZM302.331 22.232C303.051 22.232 303.585 21.974 303.933 21.458C304.293 20.942 304.473 20.204 304.473 19.244C304.473 18.284 304.293 17.552 303.933 17.048C303.585 16.544 303.051 16.292 302.331 16.292C301.611 16.292 301.071 16.544 300.711 17.048C300.363 17.552 300.189 18.284 300.189 19.244C300.189 20.216 300.363 20.96 300.711 21.476C301.059 21.98 301.599 22.232 302.331 22.232ZM309.013 11.108H311.533V23.96H309.013V11.108ZM313.686 14.564H316.206V20.432C316.206 21.104 316.326 21.56 316.566 21.8C316.806 22.028 317.136 22.142 317.556 22.142C317.88 22.142 318.144 22.094 318.348 21.998C318.564 21.902 318.768 21.764 318.96 21.584C319.152 21.416 319.302 21.218 319.41 20.99C319.53 20.75 319.59 20.492 319.59 20.216V14.564H322.11V23.96H319.662V22.664C319.278 23.216 318.84 23.618 318.348 23.87C317.868 24.122 317.352 24.248 316.8 24.248C315.732 24.248 314.946 23.972 314.442 23.42C313.938 22.856 313.686 21.974 313.686 20.774V14.564ZM324.917 16.526H323.441V14.564H324.917V12.062H327.437V14.564H329.597V16.526H327.437V20.864C327.437 21.356 327.539 21.692 327.743 21.872C327.947 22.04 328.211 22.124 328.535 22.124C328.703 22.124 328.871 22.118 329.039 22.106C329.219 22.082 329.393 22.046 329.561 21.998L329.921 23.852C329.573 23.96 329.231 24.032 328.895 24.068C328.571 24.116 328.259 24.14 327.959 24.14C326.927 24.14 326.159 23.894 325.655 23.402C325.163 22.91 324.917 22.082 324.917 20.918V16.526ZM331.179 14.564H333.699V23.96H331.179V14.564ZM331.143 11.108H333.735V13.376H331.143V11.108ZM340.37 24.248C338.858 24.248 337.688 23.816 336.86 22.952C336.032 22.088 335.618 20.852 335.618 19.244C335.618 18.476 335.726 17.786 335.942 17.174C336.17 16.55 336.488 16.028 336.896 15.608C337.316 15.176 337.82 14.846 338.408 14.618C338.996 14.39 339.65 14.276 340.37 14.276C341.102 14.276 341.762 14.39 342.35 14.618C342.938 14.846 343.436 15.176 343.844 15.608C344.264 16.028 344.582 16.55 344.798 17.174C345.014 17.786 345.122 18.476 345.122 19.244C345.122 20.024 345.008 20.726 344.78 21.35C344.564 21.962 344.246 22.484 343.826 22.916C343.418 23.348 342.92 23.678 342.332 23.906C341.744 24.134 341.09 24.248 340.37 24.248ZM340.37 22.232C341.09 22.232 341.624 21.974 341.972 21.458C342.332 20.942 342.512 20.204 342.512 19.244C342.512 18.284 342.332 17.552 341.972 17.048C341.624 16.544 341.09 16.292 340.37 16.292C339.65 16.292 339.11 16.544 338.75 17.048C338.402 17.552 338.228 18.284 338.228 19.244C338.228 20.216 338.402 20.96 338.75 21.476C339.098 21.98 339.638 22.232 340.37 22.232ZM347.034 14.564H349.482V15.86C349.854 15.308 350.292 14.906 350.796 14.654C351.312 14.402 351.846 14.276 352.398 14.276C353.466 14.276 354.258 14.558 354.774 15.122C355.29 15.674 355.548 16.55 355.548 17.75V23.96H353.028V18.092C353.028 17.432 352.902 16.982 352.65 16.742C352.398 16.502 352.062 16.382 351.642 16.382C351.318 16.382 351.036 16.43 350.796 16.526C350.568 16.622 350.352 16.76 350.148 16.94C349.98 17.108 349.836 17.312 349.716 17.552C349.608 17.78 349.554 18.032 349.554 18.308V23.96H347.034V14.564ZM359.505 20.972C359.589 21.524 359.811 21.884 360.171 22.052C360.531 22.22 360.963 22.304 361.467 22.304C362.067 22.304 362.493 22.232 362.745 22.088C363.009 21.932 363.141 21.686 363.141 21.35C363.141 21.11 363.057 20.9 362.889 20.72C362.733 20.54 362.427 20.414 361.971 20.342L360.675 20.126C359.535 19.946 358.683 19.64 358.119 19.208C357.567 18.764 357.291 18.098 357.291 17.21C357.291 16.754 357.387 16.346 357.579 15.986C357.783 15.626 358.065 15.32 358.425 15.068C358.785 14.816 359.211 14.624 359.703 14.492C360.207 14.348 360.759 14.276 361.359 14.276C362.103 14.276 362.727 14.354 363.231 14.51C363.735 14.654 364.143 14.852 364.455 15.104C364.779 15.356 365.019 15.656 365.175 16.004C365.343 16.352 365.463 16.724 365.535 17.12L363.285 17.408C363.177 16.976 362.985 16.658 362.709 16.454C362.445 16.25 362.013 16.148 361.413 16.148C361.077 16.148 360.795 16.178 360.567 16.238C360.351 16.286 360.177 16.352 360.045 16.436C359.925 16.52 359.835 16.616 359.775 16.724C359.727 16.832 359.703 16.934 359.703 17.03C359.703 17.33 359.793 17.552 359.973 17.696C360.165 17.828 360.531 17.942 361.071 18.038L362.259 18.236C362.919 18.344 363.465 18.482 363.897 18.65C364.329 18.818 364.671 19.028 364.923 19.28C365.187 19.52 365.367 19.808 365.463 20.144C365.571 20.48 365.625 20.87 365.625 21.314C365.625 22.202 365.289 22.916 364.617 23.456C363.945 23.984 362.907 24.248 361.503 24.248C360.939 24.248 360.399 24.194 359.883 24.086C359.379 23.99 358.923 23.816 358.515 23.564C358.119 23.312 357.789 22.976 357.525 22.556C357.273 22.136 357.129 21.608 357.093 20.972H359.505Z" fill="black"/>
</svg>
