<svg width="86" height="68" viewBox="0 0 86 68" fill="none" xmlns="http://www.w3.org/2000/svg">
<path d="M34.88 34.78C39.93 27.83 34.17 15.86 24.28 12.6C11.5 8.40001 1.16 12.14 1.16 12.14C1.16 12.14 2.10001 23.63 9.89001 32.92C16.5 40.79 30.4 40.96 34.88 34.78Z" stroke="white" stroke-width="1.88" stroke-miterlimit="8"/>
<path d="M30.95 63.08C32.59 59.31 36.62 56.64 41.34 56.64C46.06 56.64 49.94 59.37 51.64 63.04" stroke="white" stroke-width="1.88" stroke-linecap="round" stroke-linejoin="round"/>
<path d="M16.06 66.77C16.61 63.31 19.06 60.37 22.46 59.6C25.8 58.83 29.12 60.47 30.96 63.31" stroke="white" stroke-width="1.88" stroke-linecap="round" stroke-linejoin="round"/>
<path d="M66.54 65.85C65.99 62.82 63.54 60.25 60.14 59.57C56.8 58.9 53.48 60.34 51.64 62.82" stroke="white" stroke-width="1.88" stroke-linecap="round" stroke-linejoin="round"/>
<path d="M14.4 19.82C14.4 19.82 35.28 26.26 42.53 55.72" stroke="white" stroke-width="1.88" stroke-linecap="round" stroke-linejoin="round"/>
<path d="M59.09 26.26C59.09 26.26 50.96 32 45.02 43.75" stroke="white" stroke-width="1.88" stroke-linejoin="round"/>
<path d="M72.34 30.08C70.01 32.36 66.21 32.36 63.9 30.08L55.04 21.38C52.71 19.09 52.72 15.36 55.04 13.09L64.12 4.18001L81.44 21.19L72.35 30.09L72.34 30.08Z" stroke="white" stroke-width="1.88" stroke-linecap="round" stroke-linejoin="round"/>
<path d="M68.19 8.77L76.47 1.41" stroke="white" stroke-width="1.88" stroke-linecap="round" stroke-linejoin="round"/>
<path d="M77.29 17.06L84.74 9.69" stroke="white" stroke-width="1.88" stroke-linecap="round" stroke-linejoin="round"/>
</svg>
